<svg xmlns="http://www.w3.org/2000/svg" version="1.1" xmlns:xlink="http://www.w3.org/1999/xlink" xmlns:svgjs="http://svgjs.dev/svgjs" width="1000" height="330" viewBox="0 0 1000 330"><g transform="matrix(1,0,0,1,-0.6060605951169009,-0.09743022776069665)"><svg viewBox="0 0 396 131" data-background-color="#ffffff" preserveAspectRatio="xMidYMid meet" height="330" width="1000" xmlns="http://www.w3.org/2000/svg" xmlns:xlink="http://www.w3.org/1999/xlink"><g id="tight-bounds" transform="matrix(1,0,0,1,0.24000000433363766,0.03867684798984783)"><svg viewBox="0 0 395.52 130.92264550596317" height="130.92264550596317" width="395.52"><g><svg viewBox="0 0 679.587627332874 224.95299864366018" height="130.92264550596317" width="395.52"><g transform="matrix(1,0,0,1,284.067627332874,49.87523035631284)"><svg viewBox="0 0 395.52 125.2025379310345" height="125.2025379310345" width="395.52"><g><svg viewBox="0 0 395.52 125.2025379310345" height="125.2025379310345" width="395.52"><g><svg viewBox="0 0 395.52 125.2025379310345" height="125.2025379310345" width="395.52"><g transform="matrix(1,0,0,1,0,0)"><svg width="395.52" viewBox="6.449999809265137 -41.54999923706055 144.99000549316406 45.89999771118164" height="125.2025379310345" data-palette-color="#919591"><path d="M39.05-27.55L39.05-27.55Q39.05-25.15 37.98-23.03 36.9-20.9 35-19.23 33.1-17.55 30.55-16.4 28-15.25 25-14.85L25-14.85Q25.75-12.6 26.83-10.23 27.9-7.85 29.15-5.65 30.4-3.45 31.75-1.6 33.1 0.25 34.4 1.45L34.4 1.45Q34.15 1.95 33.68 2.45 33.2 2.95 32.58 3.38 31.95 3.8 31.28 4.08 30.6 4.35 30 4.35L30 4.35Q28.9 4.35 27.9 3.3 26.9 2.25 25.88-0.03 24.85-2.3 23.73-5.93 22.6-9.55 21.25-14.65L21.25-14.65Q20.7-14.65 20.15-14.65 19.6-14.65 19.3-14.75L19.3-14.75Q18.95-14.95 18.55-15.45L18.55-15.45Q17.2-12.55 16.15-10 15.1-7.45 14.28-5.08 13.45-2.7 12.83-0.48 12.2 1.75 11.75 4.05L11.75 4.05Q10.05 3.65 8.8 2.6 7.55 1.55 6.45-0.35L6.45-0.35Q6.65-0.8 6.88-1.23 7.1-1.65 7.45-2.43 7.8-3.2 8.33-4.4 8.85-5.6 9.73-7.6 10.6-9.6 11.83-12.5 13.05-15.4 14.8-19.55L14.8-19.55Q15.6-21.4 16.18-22.8 16.75-24.2 17.2-25.48 17.65-26.75 18.03-28.03 18.4-29.3 18.8-30.95L18.8-30.95Q16.5-30.15 14.53-29.18 12.55-28.2 11.25-27.1L11.25-27.1Q10.8-27.4 10.33-28 9.85-28.6 9.45-29.33 9.05-30.05 8.75-30.8 8.45-31.55 8.4-32.15L8.4-32.15Q9.9-33.15 12.08-34 14.25-34.85 16.7-35.48 19.15-36.1 21.7-36.45 24.25-36.8 26.45-36.8L26.45-36.8Q32.45-36.8 35.75-34.33 39.05-31.85 39.05-27.55ZM26.25-32.7L26.85-31.75Q26.5-31.3 25.75-29.95 25-28.6 24.03-26.73 23.05-24.85 21.98-22.65 20.9-20.45 19.9-18.3L19.9-18.3Q23.65-18.3 26.8-19 29.95-19.7 32.25-20.98 34.55-22.25 35.83-23.98 37.1-25.7 37.1-27.8L37.1-27.8Q37.1-30.3 35.3-31.63 33.5-32.95 29.75-32.95L29.75-32.95Q28.9-32.95 28.05-32.88 27.2-32.8 26.25-32.7L26.25-32.7ZM54.85-20.2L54.85-20.2Q55.35-20.2 56.02-20.03 56.7-19.85 57.25-19.58 57.8-19.3 58.17-19 58.55-18.7 58.55-18.45L58.55-18.45Q57.55-16.35 56.7-14.23 55.85-12.1 55.25-10.15 54.65-8.2 54.32-6.5 54-4.8 54-3.55L54-3.55Q54-2.15 54.3-1.23 54.6-0.3 55.3 0.1L55.3 0.1Q54.7 0.5 53.75 0.75 52.8 1 52.05 1L52.05 1Q49.35 1 49.35-2.7L49.35-2.7Q49.35-5.55 51.25-10.5L51.25-10.5Q50.25-8.2 48.95-6.18 47.65-4.15 46.3-2.6 44.95-1.05 43.57-0.08 42.2 0.9 41.05 1.1L41.05 1.1Q39.2 1 38.05-0.68 36.9-2.35 36.9-4.95L36.9-4.95Q36.9-7.75 38.1-10.85 39.3-13.95 41.17-16.6 43.05-19.25 45.25-21.03 47.45-22.8 49.5-22.9L49.5-22.9Q50-22.75 50.62-22.3 51.25-21.85 51.82-21.25 52.4-20.65 52.8-20.03 53.2-19.4 53.25-18.95L53.25-18.95Q51.25-18.65 49.12-17 47-15.35 45.27-13.03 43.55-10.7 42.45-8.05 41.35-5.4 41.35-3.1L41.35-3.1Q41.35-2.15 42.05-1.9L42.05-1.9Q43.5-2.2 45.4-4.38 47.3-6.55 50-11.1L50-11.1Q50.5-12 51.12-13.1 51.75-14.2 52.4-15.4 53.05-16.6 53.67-17.82 54.3-19.05 54.85-20.2ZM69.2-24.25L69.2-24.25Q70.5-23.85 71.65-22.48 72.8-21.1 73.35-19.45L73.35-19.45Q72.8-18.1 71.65-16.2 70.5-14.3 69.35-12.33 68.2-10.35 67.27-8.58 66.35-6.8 66.2-5.65L66.2-5.65Q67-6.5 67.97-7.63 68.95-8.75 69.87-9.88 70.8-11 71.6-11.93 72.4-12.85 72.85-13.3L72.85-13.3Q73.8-14.3 75.1-15.63 76.4-16.95 77.82-18.13 79.25-19.3 80.7-20.13 82.15-20.95 83.35-20.95L83.35-20.95Q84.65-20.95 85.52-20.08 86.4-19.2 86.9-18.25L86.9-18.25Q86.9-18.15 86.52-17.98 86.15-17.8 85.45-17L85.45-17Q84.75-16.1 83.87-14.53 83-12.95 82.17-11.13 81.35-9.3 80.8-7.4 80.25-5.5 80.25-3.95L80.25-3.95Q80.25-2.7 80.57-2.35 80.9-2 81.5-2L81.5-2Q82.05-2 82.65-2.25 83.25-2.5 83.6-2.5L83.6-2.5Q83.8-2.4 83.92-2.08 84.05-1.75 84.05-1.5L84.05-1.5Q83.65-1.15 83.1-0.8 82.55-0.45 81.95-0.15 81.35 0.15 80.77 0.35 80.2 0.55 79.75 0.55L79.75 0.55Q78.3 0.55 77.37 0.13 76.45-0.3 75.92-1 75.4-1.7 75.2-2.68 75-3.65 75-4.75L75-4.75Q75-5.35 75.1-6.1 75.2-6.85 75.5-7.88 75.8-8.9 76.35-10.33 76.9-11.75 77.75-13.75L77.75-13.75Q77.65-13.75 76.4-13.05 75.15-12.35 73.7-10.9L73.7-10.9Q71.35-8.65 69.47-6.45 67.6-4.25 65.65-1.55L65.65-1.55Q64.55 0 63.72 1.07 62.9 2.15 62.3 2.5L62.3 2.5Q61.25 1.9 60.75 0.83 60.25-0.25 60-1.4L60-1.4Q60-2.35 60.27-3.8 60.55-5.25 61.02-7.03 61.5-8.8 62.2-10.75 62.9-12.7 63.75-14.65L63.75-14.65Q65.65-19.05 67.22-21.55 68.8-24.05 69.2-24.25ZM98.99-23.35L98.99-23.35Q99.99-23.35 101.29-22.75 102.59-22.15 103.59-21.2L103.59-21.2Q103.34-23.2 102.97-24.98 102.59-26.75 101.87-28.65 101.14-30.55 99.94-32.8 98.74-35.05 96.94-37.95L96.94-37.95Q97.09-38.4 97.62-39 98.14-39.6 98.82-40.13 99.49-40.65 100.22-41.05 100.94-41.45 101.59-41.55L101.59-41.55Q102.99-40 104.24-37.68 105.49-35.35 106.44-32.68 107.39-30 107.92-27.15 108.44-24.3 108.44-21.7L108.44-21.7Q108.44-19.1 107.87-16.35 107.29-13.6 106.27-10.98 105.24-8.35 103.89-6 102.54-3.65 100.97-1.8 99.39 0.05 97.69 1.23 95.99 2.4 94.29 2.7L94.29 2.7Q90.84 2.3 89.02 0.48 87.19-1.35 87.19-4.55L87.19-4.55Q87.19-6.25 87.72-8.25 88.24-10.25 89.12-12.23 89.99-14.2 91.17-16.07 92.34-17.95 93.67-19.45 94.99-20.95 96.34-22 97.69-23.05 98.99-23.35ZM93.89 0.7L93.89 0.7Q95.64 0.1 97.39-1.95 99.14-4 100.54-6.78 101.94-9.55 102.82-12.73 103.69-15.9 103.69-18.85L103.69-18.85Q103.69-19.7 103.69-19.9 103.69-20.1 103.64-20.3L103.64-20.3Q102.44-19.8 101.09-18.6 99.74-17.4 98.39-15.83 97.04-14.25 95.84-12.4 94.64-10.55 93.69-8.7 92.74-6.85 92.19-5.15 91.64-3.45 91.64-2.15L91.64-2.15Q91.64 0.35 93.89 0.7ZM115.64 1.75L115.64 1.75Q112.79 1.45 111.09-0.75 109.39-2.95 109.39-6.35L109.39-6.35Q109.39-8.35 109.99-10.5 110.59-12.65 111.69-14.68 112.79-16.7 114.29-18.5 115.79-20.3 117.54-21.6L117.54-21.6Q120.29-23.65 122.69-23.65L122.69-23.65Q124.29-22.8 125.84-20.1L125.84-20.1Q126.09-20.1 126.29-20.13 126.49-20.15 126.74-20.15L126.74-20.15Q129.39-20.15 129.39-15.45L129.39-15.45Q129.39-12.3 128.37-9.47 127.34-6.65 125.52-4.35 123.69-2.05 121.17-0.48 118.64 1.1 115.64 1.75ZM118.19-14L118.19-14Q117.34-12.85 116.59-11.5 115.84-10.15 115.29-8.78 114.74-7.4 114.44-6.13 114.14-4.85 114.14-3.85L114.14-3.85Q114.14-2.65 114.54-1.55 114.94-0.45 115.44-0.3L115.44-0.3Q117.69-0.8 119.57-2.18 121.44-3.55 122.82-5.6 124.19-7.65 124.97-10.25 125.74-12.85 125.74-15.8L125.74-15.8Q125.74-17.1 125.59-17.85 125.44-18.6 125.09-19.15L125.09-19.15Q122.89-18.5 121.17-17.05 119.44-15.6 118.19-14ZM137.69 1.75L137.69 1.75Q134.84 1.45 133.14-0.75 131.44-2.95 131.44-6.35L131.44-6.35Q131.44-8.35 132.04-10.5 132.64-12.65 133.74-14.68 134.84-16.7 136.34-18.5 137.84-20.3 139.59-21.6L139.59-21.6Q142.34-23.65 144.74-23.65L144.74-23.65Q146.34-22.8 147.89-20.1L147.89-20.1Q148.14-20.1 148.34-20.13 148.54-20.15 148.79-20.15L148.79-20.15Q151.44-20.15 151.44-15.45L151.44-15.45Q151.44-12.3 150.41-9.47 149.39-6.65 147.56-4.35 145.74-2.05 143.21-0.48 140.69 1.1 137.69 1.75ZM140.24-14L140.24-14Q139.39-12.85 138.64-11.5 137.89-10.15 137.34-8.78 136.79-7.4 136.49-6.13 136.19-4.85 136.19-3.85L136.19-3.85Q136.19-2.65 136.59-1.55 136.99-0.45 137.49-0.3L137.49-0.3Q139.74-0.8 141.61-2.18 143.49-3.55 144.86-5.6 146.24-7.65 147.01-10.25 147.79-12.85 147.79-15.8L147.79-15.8Q147.79-17.1 147.64-17.85 147.49-18.6 147.14-19.15L147.14-19.15Q144.94-18.5 143.21-17.05 141.49-15.6 140.24-14Z" opacity="1" transform="matrix(1,0,0,1,0,0)" fill="#919591" class="undefined-text-0" data-fill-palette-color="primary" id="text-0"></path></svg></g></svg></g></svg></g></svg></g><g><svg viewBox="0 0 224.95299864366018 224.95299864366018" height="224.95299864366018" width="224.95299864366018"><g><svg></svg></g><g id="icon-0"><svg viewBox="0 0 224.95299864366018 224.95299864366018" height="224.95299864366018" width="224.95299864366018"><g><path d="M0 112.477c0-62.119 50.357-112.477 112.477-112.477 62.119 0 112.477 50.357 112.476 112.477 0 62.119-50.357 112.477-112.477 112.476-62.119 0-112.477-50.357-112.476-112.477zM112.477 213.662c55.883 0 101.186-45.302 101.185-101.186 0-55.883-45.302-101.186-101.186-101.185-55.883 0-101.186 45.302-101.185 101.185 0 55.883 45.302 101.186 101.186 101.186z" data-fill-palette-color="accent" fill="#636365" stroke="transparent"></path></g><g transform="matrix(1,0,0,1,54.48693080157083,49.56942530614481)"><svg viewBox="0 0 115.97913704051852 125.81414803137056" height="125.81414803137056" width="115.97913704051852"><g><svg xmlns="http://www.w3.org/2000/svg" xmlns:xlink="http://www.w3.org/1999/xlink" version="1.1" x="0" y="0" viewBox="8.497099876403809 4.949999809265137 83.10289764404297 90.15000915527344" enable-background="new 0 0 100 100" xml:space="preserve" height="125.81414803137056" width="115.97913704051852" class="icon-c-0" data-fill-palette-color="accent" id="c-0"><path d="M54.4 94.6c0.5 0.3 1 0.4 1.6 0.4 0.8 0 1.7-0.3 2.6-0.8l27.5-15.9c3.1-1.8 5.5-6.1 5.5-9.6V37.1c0-1.8-0.6-3.2-1.8-3.9-1.2-0.7-2.7-0.5-4.2 0.4L58.1 49.4c-3.1 1.8-5.5 6.1-5.5 9.6v31.7C52.5 92.5 53.2 93.9 54.4 94.6zM81.8 43.8c0.5-0.3 0.9-0.4 1.3-0.4 0.3 0 0.5 0.1 0.7 0.2 0.5 0.3 0.8 1 0.8 1.9 0 2.1-1.5 4.7-3.3 5.7-0.8 0.5-1.5 0.5-2 0.2-0.5-0.3-0.8-1-0.8-1.9C78.5 47.4 80 44.8 81.8 43.8zM72.3 60.2c0.5-0.3 0.9-0.4 1.3-0.4 0.3 0 0.5 0.1 0.7 0.2 0.5 0.3 0.8 1 0.8 1.9 0 2.1-1.5 4.7-3.3 5.7-0.8 0.5-1.5 0.5-2 0.2-0.5-0.3-0.8-1-0.8-1.9C69 63.8 70.5 61.3 72.3 60.2zM62.8 76.7c0.5-0.3 0.9-0.4 1.3-0.4 0.3 0 0.5 0.1 0.7 0.2 0.5 0.3 0.8 1 0.8 1.9 0 2.1-1.5 4.7-3.3 5.7-0.8 0.5-1.5 0.5-2 0.2-0.5-0.3-0.8-1-0.8-1.9C59.5 80.3 61 77.7 62.8 76.7z" fill="#636365" data-fill-palette-color="accent"></path><path d="M13.9 78.4l27.5 15.9c0.9 0.5 1.8 0.8 2.6 0.8 0.6 0 1.1-0.1 1.6-0.4 1.2-0.7 1.8-2 1.8-3.9V59c0-3.5-2.5-7.8-5.5-9.6L14.5 33.6c-1.6-0.9-3.1-1-4.2-0.4-1.2 0.7-1.8 2-1.8 3.9v31.7C8.4 72.3 10.9 76.6 13.9 78.4zM35.2 54.5c0.2-0.1 0.4-0.2 0.7-0.2 0.4 0 0.9 0.1 1.3 0.4 1.8 1.1 3.3 3.6 3.3 5.7 0 0.9-0.3 1.6-0.8 1.9-0.5 0.3-1.2 0.2-2-0.2-1.8-1.1-3.3-3.6-3.3-5.7C34.4 55.4 34.7 54.8 35.2 54.5zM35.2 76.4c0.2-0.1 0.4-0.2 0.7-0.2 0.4 0 0.9 0.1 1.3 0.4 1.8 1.1 3.3 3.6 3.3 5.7 0 0.9-0.3 1.6-0.8 1.9-0.5 0.3-1.2 0.2-2-0.2-1.8-1.1-3.3-3.6-3.3-5.7C34.4 77.4 34.7 76.7 35.2 76.4zM25.7 60c0.5-0.3 1.2-0.2 2 0.2 1.8 1.1 3.3 3.6 3.3 5.7 0 0.9-0.3 1.6-0.8 1.9-0.5 0.3-1.2 0.2-2-0.2-1.8-1.1-3.3-3.6-3.3-5.7C24.9 60.9 25.2 60.3 25.7 60zM16.2 43.5c0.2-0.1 0.4-0.2 0.7-0.2 0.4 0 0.9 0.1 1.3 0.4 1.8 1.1 3.3 3.6 3.3 5.7 0 0.9-0.3 1.6-0.8 1.9s-1.2 0.2-2-0.2c-1.8-1.1-3.3-3.6-3.3-5.7C15.4 44.5 15.7 43.8 16.2 43.5zM16.2 65.5c0.2-0.1 0.4-0.2 0.7-0.2 0.4 0 0.9 0.1 1.3 0.4 1.8 1.1 3.3 3.6 3.3 5.7 0 0.9-0.3 1.6-0.8 1.9-0.5 0.3-1.2 0.2-2-0.2-1.8-1.1-3.3-3.6-3.3-5.7C15.4 66.4 15.7 65.7 16.2 65.5z" fill="#636365" data-fill-palette-color="accent"></path><path d="M55.5 45L83 29.2c1.6-0.9 2.4-2.1 2.4-3.5s-0.9-2.6-2.4-3.5L55.5 6.3c-3.1-1.8-8-1.8-11.1 0L17 22.2c-1.6 0.9-2.4 2.1-2.4 3.5s0.9 2.6 2.4 3.5L44.5 45c1.5 0.9 3.5 1.3 5.5 1.3C52 46.3 54 45.9 55.5 45zM61.6 21c2-1.1 5.3-1.1 7.4 0 0.9 0.5 1.4 1.1 1.4 1.8 0 0.7-0.5 1.3-1.4 1.8l-1.9 1.1 1.9 1.1c0.9 0.5 1.4 1.1 1.4 1.8 0 0.7-0.5 1.3-1.4 1.8-2 1.2-5.4 1.2-7.4 0l-8.3-4.7L61.6 21 61.6 21zM41.2 15.3c1-0.6 2.4-0.9 3.7-0.9 1.3 0 2.7 0.3 3.7 0.9l1.4 0.8 1.4-0.8c1-0.6 2.3-0.9 3.7-0.9s2.7 0.3 3.7 0.9c0.9 0.5 1.4 1.1 1.4 1.8 0 0.7-0.5 1.3-1.4 1.8l0.2 0.4-0.2-0.4-8.8 5-8.8-5c-0.9-0.5-1.4-1.1-1.4-1.8S40.3 15.8 41.2 15.3zM31 30.3c-0.9-0.5-1.4-1.1-1.4-1.8 0-0.7 0.5-1.3 1.4-1.8l1.9-1.1L31 24.6c-0.9-0.5-1.4-1.1-1.4-1.8 0-0.7 0.5-1.3 1.4-1.8 1-0.6 2.4-0.9 3.7-0.9 1.3 0 2.7 0.3 3.7 0.9l8.3 4.7-8.3 4.7C36.4 31.5 33.1 31.5 31 30.3zM41.2 36.1c-0.9-0.5-1.4-1.1-1.4-1.8 0-0.7 0.5-1.3 1.4-1.8L41 32l0.2 0.4 8.8-5 8.8 5c0.9 0.5 1.4 1.1 1.4 1.8s-0.5 1.3-1.4 1.8c-2 1.2-5.4 1.2-7.4 0L50 35.3l-1.4 0.8C46.6 37.2 43.3 37.2 41.2 36.1z" fill="#636365" data-fill-palette-color="accent"></path></svg></g></svg></g></svg></g></svg></g></svg></g><defs></defs></svg><rect width="395.52" height="130.92264550596317" fill="none" stroke="none" visibility="hidden"></rect></g></svg></g></svg>